<svg xmlns:xlink="http://www.w3.org/1999/xlink" width="696" height="534.1" viewBox="0 0 696 534.1"><path fill="#EBD6C0" d="M178.9 528.1c-2.7 0-4.6-.2-5.7-.3-7.7-.8-14.5-5-18.8-11.5s-5.5-14.4-3.3-21.8l64-216c4.1-13.8 18.5-21.6 32.3-17.5 13.8 4.1 21.6 18.5 17.5 32.3l-51.7 174.3c14.2-5.5 32-14.2 52.6-27.5 4.2-2.7 9.1-4.2 14.1-4.2h4c14.4 0 26 11.6 26 26 0 13-9.5 23.7-21.9 25.7-57.6 36.1-94.6 40.5-109.1 40.5z"/><path fill="#94B1CA" d="M248 294h192v172H248z"/><path fill="#333" d="M440 294v172H248V294h192m0-4H248c-2.2 0-4 1.8-4 4v172c0 2.2 1.8 4 4 4h192c2.2 0 4-1.8 4-4V294c0-2.2-1.8-4-4-4z"/><path fill="#005689" d="M248 378h192v88H248z"/><path fill="#FFF" d="M248 382h192v12H248z"/><path fill="#EBD6C0" d="M531.2 499.8l-60-224c-3.4-12.8-16.6-20.4-29.4-17-12.8 3.4-20.4 16.6-17 29.4L472 464.6c-30.2-13.4-42.9-15.1-80.3-39.2l-.1-.1c-.1-.1-10.7-13.6-10.7-31.3 0-3.3-2.7-6-6-6s-6 2.7-6 6c0 7.2 1.4 13.8 3.3 19.5-10.3-3.8-22.2-.1-28.4 9.5-7.2 11.1-4 26 7.1 33.2l3.5 2.3c65 42 67.7 37.5 144.2 69.7 3 1.3 6.2 1.9 9.3 1.9 5.7 0 11.3-2 15.8-5.9 7-6.1 9.9-15.6 7.5-24.4z"/><path fill="#333" d="M448 258c10.6 0 20.3 7.1 23.2 17.8l60 224c2.4 8.9-.5 18.3-7.4 24.3-4.5 3.9-10.1 5.9-15.8 5.9-3.1 0-6.3-.6-9.3-1.9-76.5-32.2-79.2-27.6-144.2-69.7l-3.5-2.3c-11.1-7.2-14.3-22.1-7.1-33.2 4.6-7.1 12.3-11 20.2-11 2.8 0 5.6.5 8.3 1.5-1.9-5.6-3.3-12.2-3.3-19.5 0-3.3 2.7-6 6-6s6 2.7 6 6c0 17.7 10.6 31.1 10.7 31.3l.1.1c37.3 24.1 50 25.8 80.3 39.2L425 288.1c-3.4-12.8 4.2-26 17-29.4 1.9-.4 4-.7 6-.7m0-4c-2.4 0-4.9.3-7.3 1-14.9 4-23.8 19.4-19.8 34.3L466 457.7c-5-2.1-9.6-4-14.1-5.7-17.3-6.9-30.9-12.4-57.4-29.5-1.5-2.1-9.6-13.8-9.6-28.4 0-5.5-4.5-10-10-10s-10 4.5-10 10c0 4.7.5 9.4 1.6 14.1-.9-.1-1.7-.1-2.6-.1-9.5 0-18.3 4.8-23.5 12.8-4.1 6.3-5.4 13.8-3.9 21.1 1.6 7.3 5.9 13.6 12.2 17.6l3.5 2.3c48.6 31.5 63.1 37.2 98.2 51.1 12 4.8 27 10.7 46.6 18.9 3.5 1.5 7.1 2.2 10.9 2.2 6.8 0 13.3-2.4 18.4-6.9 8-7 11.4-18.1 8.6-28.4l-60-224c-3.1-12.3-14.2-20.8-26.9-20.8z"/><g fill="#333"><path d="M380 457c0 4.4-3.6 8-8 8h-44c-4.4 0-8-3.6-8-8V357c0-4.4 3.6-8 8-8h44c4.4 0 8 3.6 8 8v100z"/><path d="M372 467h-44c-5.5 0-10-4.5-10-10V357c0-5.5 4.5-10 10-10h44c5.5 0 10 4.5 10 10v100c0 5.5-4.5 10-10 10zm-44-116c-3.3 0-6 2.7-6 6v100c0 3.3 2.7 6 6 6h44c3.3 0 6-2.7 6-6V357c0-3.3-2.7-6-6-6h-44z"/></g><path fill="#EBD6C0" d="M379.9 420c-.5-3.3-3.6-5.5-6.9-5l-44.9 7.3c-.2-1.5-.4-3-.7-4.3l40.4-6.1c3.3-.5 5.5-3.6 5-6.8-.5-3.3-3.6-5.5-6.8-5l-46 7c-.6.1-1.2.3-1.7.5l-.3-8.4c2.7-6.1 5-14 5-23.2 0-3.3-2.7-6-6-6s-6 2.7-6 6c0 17.3-10.3 28.8-10.4 28.9l-1 1.1-.4 1.5c-3.5 14.2-18.3 29.1-18.4 29.2-2.2 2.2-10.3 6.5-15.3 8.8-3 1.4-4.3 5-2.9 8 .3.8.8 1.4 1.4 1.9l-.7 11.8c-2.1.6-3.8 2.4-4.2 4.7-.5 3.3 1.7 6.4 4.9 6.9 3.1.5 6.4.8 9.8.8 23.9 0 51.2-11.6 52.6-12.2l2.6-1.1 32.1-5.5c3.3-.6 5.5-3.7 4.9-6.9s-3.7-5.5-6.9-4.9l-28 4.8c0-1.2.1-2.4 0-3.8l37-6.2c3.3-.5 5.5-3.6 4.9-6.9-.5-3.3-3.6-5.5-6.9-4.9l-35.8 6c-.1-1.2-.3-2.5-.4-3.8l45.2-7.4c3.1-.4 5.4-3.5 4.8-6.8z"/><path fill="#333" d="M317 370c3.3 0 6 2.7 6 6 0 9.2-2.3 17.1-5 23.2l.3 8.4c.5-.3 1.1-.4 1.7-.5l46-7c.3 0 .6-.1.9-.1 2.9 0 5.5 2.1 5.9 5.1.5 3.3-1.8 6.3-5 6.8l-40.4 6.1c.2 1.4.4 2.8.7 4.3L373 415c.3-.1.6-.1 1-.1 2.9 0 5.4 2.1 5.9 5 .5 3.3-1.7 6.4-5 6.9l-45.2 7.4c.1 1.3.3 2.5.4 3.8l35.8-6c.3-.1.7-.1 1-.1 2.9 0 5.4 2.1 5.9 5 .5 3.3-1.7 6.4-4.9 6.9l-37 6.2v3.8l28-4.8c.3-.1.7-.1 1-.1 2.9 0 5.4 2.1 5.9 5 .6 3.3-1.6 6.4-4.9 6.9l-32.1 5.5-2.6 1.1c-1.3.6-28.7 12.2-52.6 12.2-3.4 0-6.7-.2-9.8-.8-3.3-.5-5.5-3.6-4.9-6.9.4-2.3 2.1-4.1 4.2-4.7l.7-11.8c-.6-.5-1.1-1.2-1.4-1.9-1.4-3-.1-6.6 2.9-8 5-2.3 13-6.6 15.3-8.8.1-.1 14.9-15.1 18.4-29.2l.4-1.5 1-1.1c.1-.1 10.4-11.7 10.4-28.9.2-3.3 2.9-6 6.2-6m0-4c-5.5 0-10 4.5-10 10 0 15.2-9 25.8-9.4 26.3l-1 1.1-.7.8-.2 1-.4 1.5c-3.2 13-17.2 27.2-17.4 27.4-1.4 1.4-8.1 5.2-14.1 8-5 2.3-7.2 8.3-4.9 13.3.3.6.6 1.1 1 1.6l-.5 7.9c-2.2 1.5-3.8 3.9-4.3 6.6-.4 2.6.2 5.3 1.7 7.5 1.6 2.2 3.9 3.6 6.5 4.1 3.2.5 6.7.8 10.5.8 24.7 0 52.9-12 54.1-12.5l2.1-.9 31.6-5.4c5.4-.9 9.1-6.1 8.2-11.5-.3-2-1.3-3.8-2.6-5.2l1.4-.2c2.6-.4 4.9-1.9 6.5-4.1s2.2-4.8 1.7-7.5c-.3-2-1.3-3.9-2.6-5.3l1.4-.2c5.4-.9 9.1-6 8.3-11.5-.7-4.3-4.1-7.6-8.3-8.3 1.2-2 1.7-4.3 1.3-6.6-.7-4.8-5-8.5-9.9-8.5-.5 0-1 0-1.5.1l-43.3 6.6-.1-2.8c3.3-7.7 4.9-15.8 4.9-23.9 0-5.7-4.5-10.2-10-10.2z"/><path opacity=".8" fill="#F3AAB9" d="M364.2 454.3c.4 2.2-1.1 4.3-3.2 4.6l-3.9.7c-2.2.4-2.3-1.4-2.7-3.6-.4-2.2-.9-3.9 1.3-4.3l3.9-.7c2.1-.4 4.2 1.1 4.6 3.3zm6.6-16.9c.4 2.2-1.1 4.3-3.2 4.6l-3.9.7c-2.2.4-2.3-1.4-2.7-3.6-.4-2.2-.9-3.9 1.3-4.3l3.9-.7c2.1-.4 4.2 1.1 4.6 3.3zm7.1-16.8c.4 2.2-1.1 4.3-3.2 4.6l-3.9.7c-2.2.4-2.3-1.4-2.7-3.6-.4-2.2-.9-3.9 1.3-4.3l3.9-.7c2.2-.3 4.2 1.1 4.6 3.3zm-7.1-15.4c.4 2.2-1.1 4.3-3.2 4.6l-3.9.7c-2.2.4-2.3-1.4-2.7-3.6-.4-2.2-.9-3.9 1.3-4.3l3.9-.7c2.1-.3 4.2 1.2 4.6 3.3zm-57.1-34.3c2.2.3 3.7 2.3 3.5 4.5l-.5 4c-.3 2.2-2 1.8-4.2 1.5s-2-.3-1.7-2.5l.5-4c.2-2.2.2-3.7 2.4-3.5z"/><path fill="#94B1CA" d="M416 318l52.5 142.9c-8.5-3.7-13-6.2-23.5-12.2-5-2.9-3.2-1.9-8.7-5.4-13.9-9-32.5-5-41.5 8.9s-5 32.5 8.9 41.5c11.5 7.5 10.3 7.3 20.3 12.5 43.8 22.8 72.6 26 85.3 26 2.8 0 4.8-.2 6-.3 8.8-1 16.8-5.8 21.7-13.2s6.3-16.6 3.8-25.1l-64-216c-1.7-5.7-5-10.7-9.6-14.5-3.3-2.8-33.9-27-87.2-27h-72c-53.3 0-83.9 24.2-87.2 27-4.5 3.8-7.9 8.8-9.6 14.5l-64 216c-2.5 8.5-1.1 17.7 3.8 25.1s12.9 12.2 21.7 13.2c1.2.1 3.2.3 6 .3 15.5 0 55.6-4.8 117.6-44.9 13.9-9 17.9-27.6 8.9-41.5-9-13.9-27.6-17.9-41.5-8.9-16.8 10.9-31.7 18.6-44.2 24L272 318"/><path fill="#333" d="M509.3 534.1c-13.4 0-42.5-3.4-86.2-26.2-7-3.6-8.5-4.7-12.7-7.5-1.9-1.3-4.2-2.8-7.7-5.1-14.8-9.6-19.1-29.4-9.5-44.2 4.6-7.2 11.8-12.1 20.2-13.9 8.4-1.8 16.9-.2 24.1 4.4 1.6 1.1 2.6 1.7 3.3 2.2 1.6 1.1 1.8 1.2 5.3 3.2 8.6 5 13.2 7.5 19 10.2l-50.9-138.4c-.4-1 .2-2.2 1.2-2.6 1-.4 2.2.2 2.6 1.2l52.5 142.9c.3.8.1 1.6-.5 2.1-.6.6-1.4.7-2.2.4-8.5-3.7-13-6.1-23.7-12.3-3.6-2.1-3.8-2.2-5.5-3.3-.7-.5-1.7-1.1-3.3-2.2-6.3-4.1-13.8-5.4-21.1-3.9-7.3 1.6-13.6 5.9-17.6 12.2-8.4 13-4.7 30.3 8.3 38.7 3.6 2.3 5.9 3.9 7.8 5.2 4 2.7 5.5 3.7 12.3 7.3 43 22.4 71.3 25.8 84.4 25.8 2.7 0 4.7-.2 5.8-.3 8.3-.9 15.6-5.4 20.2-12.3s5.9-15.5 3.5-23.4l-64-216c-1.6-5.3-4.7-10-8.9-13.6-3.3-2.7-33.3-26.5-85.9-26.5h-72c-52.6 0-82.7 23.8-85.9 26.5-4.3 3.6-7.3 8.2-8.9 13.6l-64 216c-2.4 8-1.1 16.5 3.5 23.4 4.6 6.9 12 11.4 20.2 12.3 1.1.1 3.1.3 5.8.3 14.3 0 54.3-4.3 116.5-44.6 13-8.4 16.7-25.8 8.3-38.7-4.1-6.3-10.3-10.6-17.6-12.2-7.3-1.6-14.8-.2-21.1 3.9-15.4 9.9-30.3 18.1-44.5 24.2-.7.3-1.6.2-2.2-.4-.6-.5-.8-1.4-.5-2.1l52.5-142.9c.4-1 1.5-1.6 2.6-1.2 1 .4 1.6 1.5 1.2 2.6l-51 138.2c12.7-5.8 26-13.2 39.6-22 7.2-4.6 15.7-6.2 24.1-4.4 8.4 1.8 15.5 6.7 20.2 13.9 9.6 14.8 5.3 34.7-9.5 44.3-27.1 17.5-52.9 30.2-76.7 37.7-19.7 6.2-33.7 7.5-42 7.5-2.9 0-5-.2-6.3-.3-9.4-1-17.9-6.2-23.1-14.1-5.3-7.9-6.7-17.7-4-26.8l64-216c1.8-6.1 5.3-11.4 10.2-15.5 3.4-2.8 34.5-27.4 88.5-27.4h72c54 0 85.1 24.6 88.5 27.4 4.9 4.1 8.4 9.4 10.2 15.5l64 216c2.7 9.1 1.2 18.9-4 26.8-5.3 7.9-13.7 13.1-23.1 14.1-1.3.1-3.4.3-6.3.3z"/><path d="M476.1 286h1.1l-1.2-4H212l-1.2 4m271 15.6l-1.1-3.6H207.2l-1.2 4h274c.6 0 1.3-.2 1.8-.4z" fill="#005689"/><path fill="#FFF" d="M477.2 286H210.8l-3.6 12h273.6"/><path fill="#333" d="M200 468c-1.1 0-2-.9-2-2s.9-2 2-2c6.2 0 18.6-4.9 18.7-5 13.9-6 28.7-14.1 43.9-23.9.9-.6 2.2-.3 2.8.6.6.9.3 2.2-.6 2.8-15.4 9.9-30.3 18.1-44.5 24.2-.6.2-13.4 5.3-20.3 5.3zm293.8 0c-14.4 0-25.7-5.1-26.2-5.3-8.4-3.6-12.9-6.1-23.7-12.3-3.6-2.1-3.8-2.2-5.5-3.3-.7-.5-1.7-1.1-3.3-2.2-.9-.6-1.2-1.8-.6-2.8.6-.9 1.8-1.2 2.8-.6 1.6 1.1 2.6 1.7 3.3 2.2 1.6 1.1 1.8 1.2 5.3 3.2 10.6 6.1 15 8.6 23.3 12.1.2.1 11 5 24.5 5 1.1 0 2 .9 2 2s-.8 2-1.9 2z"/><path fill="#333" d="M468.5 462.9c-.9 0-1.8-.7-2-1.6-.2-1.1.5-2.1 1.6-2.3 3.6-.7 13.8-3.7 13.8-8.9 0-1.1.9-2 2-2s2 .9 2 2c0 2.9-1.5 7-8.9 10.3-4 1.8-8 2.5-8.2 2.6 0-.2-.2-.1-.3-.1z"/><path fill="#EBD6C0" d="M372 226h-56v20c0 4.4 12.5 8 28 8s28-3.6 28-8v-20z"/><path fill="#333" d="M344 256c-14.4 0-30-3.1-30-10v-22h60v22c0 6.9-15.6 10-30 10zm-26-28v18c0 1.8 8.8 6 26 6s26-4.2 26-6v-18h-52z"/><g fill="#333"><path d="M244 150h52v100h-52z"/><path d="M296 252h-52c-1.1 0-2-.9-2-2V150c0-1.1.9-2 2-2h52c1.1 0 2 .9 2 2v100c0 1.1-.9 2-2 2zm-50-4h48v-96h-48v96z"/></g><g fill="#333"><path d="M392 150h52v100h-52z"/><path d="M444 252h-52c-1.1 0-2-.9-2-2V150c0-1.1.9-2 2-2h52c1.1 0 2 .9 2 2v100c0 1.1-.9 2-2 2zm-50-4h48v-96h-48v96z"/></g><g fill="#333"><path d="M444 150c0-59.6-44.8-108-100-108S244 90.4 244 150h200z"/><path d="M444 152H244c-1.1 0-2-.9-2-2 0-60.7 45.8-110 102-110s102 49.3 102 110c0 1.1-.9 2-2 2zm-198-4h196c-1-57.5-44.6-104-98-104s-97 46.5-98 104z"/></g><circle fill="#EBD6C0" cx="344" cy="150" r="84"/><path fill="#333" d="M344 236c-47.4 0-86-38.6-86-86s38.6-86 86-86 86 38.6 86 86-38.6 86-86 86zm0-168c-45.2 0-82 36.8-82 82s36.8 82 82 82 82-36.8 82-82-36.8-82-82-82z"/><g fill="#333"><circle cx="312" cy="102" r="20"/><path d="M312 124c-12.1 0-22-9.9-22-22s9.9-22 22-22 22 9.9 22 22-9.9 22-22 22zm0-40c-9.9 0-18 8.1-18 18s8.1 18 18 18 18-8.1 18-18-8.1-18-18-18z"/></g><g fill="#333"><circle cx="344" cy="102" r="20"/><path d="M344 124c-12.1 0-22-9.9-22-22s9.9-22 22-22 22 9.9 22 22-9.9 22-22 22zm0-40c-9.9 0-18 8.1-18 18s8.1 18 18 18 18-8.1 18-18-8.1-18-18-18z"/></g><g fill="#333"><circle cx="376" cy="102" r="20"/><path d="M376 124c-12.1 0-22-9.9-22-22s9.9-22 22-22 22 9.9 22 22-9.9 22-22 22zm0-40c-9.9 0-18 8.1-18 18s8.1 18 18 18 18-8.1 18-18-8.1-18-18-18z"/></g><g fill="#333"><circle cx="408" cy="102" r="20"/><path d="M408 124c-12.1 0-22-9.9-22-22s9.9-22 22-22 22 9.9 22 22-9.9 22-22 22zm0-40c-9.9 0-18 8.1-18 18s8.1 18 18 18 18-8.1 18-18-8.1-18-18-18z"/></g><g fill="#333"><circle cx="280" cy="102" r="20"/><path d="M280 124c-12.1 0-22-9.9-22-22s9.9-22 22-22 22 9.9 22 22-9.9 22-22 22zm0-40c-9.9 0-18 8.1-18 18s8.1 18 18 18 18-8.1 18-18-8.1-18-18-18z"/></g><g fill="#333"><ellipse cx="344" cy="86" rx="68" ry="24"/><path d="M344 112c-39.3 0-70-11.4-70-26s30.7-26 70-26 70 11.4 70 26-30.7 26-70 26zm0-48c-39.5 0-66 11.4-66 22s26.5 22 66 22 66-11.4 66-22-26.5-22-66-22z"/></g><ellipse transform="rotate(45.01 283.986 103.982)" fill="#94B1CA" cx="284" cy="104" rx="4" ry="10"/><path d="M348 196c-.4 0-8.9-.1-13.4-4.6-.8-.8-.8-2 0-2.8.8-.8 2-.8 2.8 0 2 2 5.4 2.9 8 3.2l-3.3-13.3c-.3-1.1.4-2.2 1.5-2.4 1.1-.3 2.2.4 2.4 1.5l4 16c.1.6 0 1.2-.4 1.7s-1 .7-1.6.7zm-12.8 17.1c-6.8 0-12.4-5.4-12.7-5.7-.8-.8-.8-2 0-2.8.8-.8 2-.8 2.8 0 .1.1 7.1 6.9 13.7 3.6 1-.5 2.2-.1 2.7.9s.1 2.2-.9 2.7c-1.8 1-3.7 1.3-5.6 1.3z"/><g fill="#333"><circle cx="406" cy="252" r="14"/><path d="M406 268c-8.8 0-16-7.2-16-16s7.2-16 16-16 16 7.2 16 16-7.2 16-16 16zm0-28c-6.6 0-12 5.4-12 12s5.4 12 12 12 12-5.4 12-12-5.4-12-12-12z"/></g><g fill="#333"><circle cx="430" cy="252" r="14"/><path d="M430 268c-8.8 0-16-7.2-16-16s7.2-16 16-16 16 7.2 16 16-7.2 16-16 16zm0-28c-6.6 0-12 5.4-12 12s5.4 12 12 12 12-5.4 12-12-5.4-12-12-12z"/></g><g fill="#333"><circle cx="258" cy="252" r="14"/><path d="M258 268c-8.8 0-16-7.2-16-16s7.2-16 16-16 16 7.2 16 16-7.2 16-16 16zm0-28c-6.6 0-12 5.4-12 12s5.4 12 12 12 12-5.4 12-12-5.4-12-12-12z"/></g><g fill="#333"><circle cx="282" cy="252" r="14"/><path d="M282 268c-8.8 0-16-7.2-16-16s7.2-16 16-16 16 7.2 16 16-7.2 16-16 16zm0-28c-6.6 0-12 5.4-12 12s5.4 12 12 12 12-5.4 12-12-5.4-12-12-12z"/></g><circle fill="#FFF" cx="382" cy="168" r="30"/><path fill="#800C0C" d="M382 200c-17.6 0-32-14.4-32-32s14.4-32 32-32 32 14.4 32 32-14.4 32-32 32zm0-60c-15.4 0-28 12.6-28 28s12.6 28 28 28 28-12.6 28-28-12.6-28-28-28z"/><circle fill="#FFF" cx="306" cy="168" r="30"/><path fill="#800C0C" d="M306 200c-17.6 0-32-14.4-32-32s14.4-32 32-32 32 14.4 32 32-14.4 32-32 32zm0-60c-15.4 0-28 12.6-28 28s12.6 28 28 28 28-12.6 28-28-12.6-28-28-28z"/><circle cx="380" cy="182" r="4"/><circle cx="308" cy="182" r="4"/><path fill="#FFF" d="M412 166h12"/><path fill="#800C0C" d="M424 168h-12c-1.1 0-2-.9-2-2s.9-2 2-2h12c1.1 0 2 .9 2 2s-.9 2-2 2z"/><path fill="#FFF" d="M264 166h12"/><path fill="#800C0C" d="M276 168h-12c-1.1 0-2-.9-2-2s.9-2 2-2h12c1.1 0 2 .9 2 2s-.9 2-2 2zm76 4c-1.1 0-2-.9-2-2 0-3.3-2.7-6-6-6s-6 2.7-6 6c0 1.1-.9 2-2 2s-2-.9-2-2c0-5.5 4.5-10 10-10s10 4.5 10 10c0 1.1-.9 2-2 2z"/><path fill="#94B1CA" d="M388 250c0 6.9-19.7 12-44 12s-44-5.1-44-12v-12c0 6.9 19.7 12 44 12s44-5.1 44-12v12z"/><path fill="#333" d="M344 264c-22.2 0-46-4.4-46-14v-12c0-1.1.9-2 2-2s2 .9 2 2c0 4.1 15 10 42 10s42-5.9 42-10c0-1.1.9-2 2-2s2 .9 2 2v12c0 9.6-23.8 14-46 14zm-42-19.8v5.8c0 4.1 15 10 42 10s42-5.9 42-10v-5.8c-7.7 5.3-25.3 7.8-42 7.8s-34.3-2.5-42-7.8z"/><circle fill-rule="evenodd" clip-rule="evenodd" fill="#484848" cx="120" cy="270" r="60"/><circle fill-rule="evenodd" clip-rule="evenodd" fill="#3C3835" cx="120" cy="270" r="52"/><circle fill-rule="evenodd" clip-rule="evenodd" fill="#333" cx="84" cy="98" r="80"/><circle fill="#F6F6F6" cx="126" cy="272" r="22"/><circle fill="#F6F6F6" cx="106" cy="272" r="18"/><circle fill="#F6F6F6" cx="118" cy="260" r="18"/><circle fill="#FFCE4B" cx="126" cy="272" r="10"/><g fill="#484848"><path fill-rule="evenodd" clip-rule="evenodd" d="M46.5 354.9c-3.1 3.1-8.2 3.1-11.3 0-3.1-3.1-3.1-8.2 0-11.3l11.3-11.3 11.3 11.3-11.3 11.3z"/><path d="M40.8 359.2c-2.7 0-5.2-1-7.1-2.9-3.9-3.9-3.9-10.2 0-14.1l12.7-12.7 14.1 14.1-12.7 12.7c-1.8 1.9-4.3 2.9-7 2.9zm5.7-24.1l-9.9 9.9c-2.3 2.3-2.3 6.1 0 8.5 1.1 1.1 2.6 1.8 4.2 1.8s3.1-.6 4.2-1.8l9.9-9.9-8.4-8.5z"/><path fill-rule="evenodd" clip-rule="evenodd" d="M74.694 309.602l5.656 5.658-25.46 25.452-5.656-5.658z"/><path d="M54.9 343.5l-8.5-8.5 28.3-28.3 8.5 8.5-28.3 28.3zm-2.8-8.4l2.8 2.8 22.6-22.6-2.8-2.8-22.6 22.6z"/></g><path fill="#F3AAB9" d="M630.6 306.5c-12.9-10.7-28.8-12.9-41.5-12.4 6.7-5.9 10.9-14.5 10.9-24.1 0-17.7-14.3-32-32-32s-32 14.3-32 32c0 16.3 12.2 29.8 28 31.7 0 .4.1.7.2 1.1.7 2.1 3 3.2 5.1 2.5.3-.1 34.2-11 56.2 7.3.7.6 1.7.9 2.6.9 1.1 0 2.3-.5 3.1-1.4 1.3-1.7 1.1-4.2-.6-5.6z"/><path fill="#676767" d="M84 70c-15.5 0-28 12.5-28 28s12.5 28 28 28 28-12.5 28-28-12.5-28-28-28zm0 32c-2.2 0-4-1.8-4-4s1.8-4 4-4 4 1.8 4 4-1.8 4-4 4z"/><path fill="#333" d="M568 210c-33.1 0-60 26.9-60 60s26.9 60 60 60 60-26.9 60-60-26.9-60-60-60zm0 9c8.3 0 15 6.7 15 15s-6.7 15-15 15-15-6.7-15-15 6.7-15 15-15zm-48.5 35.2c2.6-7.9 11-12.2 18.9-9.6 7.9 2.6 12.2 11 9.6 18.9-2.6 7.9-11 12.2-18.9 9.6-7.9-2.5-12.2-11-9.6-18.9zm39.5 53.7c-4.9 6.7-14.2 8.2-21 3.3-6.7-4.9-8.2-14.2-3.3-21 4.9-6.7 14.2-8.2 21-3.3 6.7 5 8.1 14.3 3.3 21zm9-28.9c-5 0-9-4-9-9s4-9 9-9 9 4 9 9-4 9-9 9zm30 32.3c-6.7 4.9-16.1 3.4-21-3.3-4.9-6.7-3.4-16.1 3.3-21 6.7-4.9 16.1-3.4 21 3.3 4.9 6.7 3.4 16.1-3.3 21zm8.9-38.2c-7.9 2.6-16.3-1.8-18.9-9.6-2.6-7.9 1.8-16.3 9.6-18.9s16.3 1.8 18.9 9.6c2.6 7.9-1.7 16.4-9.6 18.9z"/><path fill="#F3AAB9" d="M84 78c-11 0-20 9-20 20s9 20 20 20 20-9 20-20-9-20-20-20zm0 24c-2.2 0-4-1.8-4-4s1.8-4 4-4 4 1.8 4 4-1.8 4-4 4z"/><path fill="#676767" d="M144 114c-.6 0-1.2-.1-1.8-.4-2-1-2.8-3.4-1.8-5.4 7.3-14.5 3.7-33.2 3.7-33.4-.2-.9-.1-1.8.3-2.6l24-48c1-2 3.4-2.8 5.4-1.8 2 1 2.8 3.4 1.8 5.4l-23.4 46.8c.8 5 2.8 22.5-4.6 37.2-.7 1.4-2.1 2.2-3.6 2.2z"/><path fill="#D8D8D8" d="M145.5 107c-3.9-2.1-8.7-.6-10.8 3.3l-5.7 10.6c-2.1 3.9-.6 8.7 3.3 10.8 3.9 2.1 8.7.6 10.8-3.3l5.7-10.6c2-3.9.6-8.8-3.3-10.8z"/><circle fill="#676767" cx="137.9" cy="121" r="4"/><circle fill="#D8D8D8" cx="172" cy="26" r="12"/><circle fill="#676767" cx="172" cy="26" r="4"/><path opacity=".8" fill-rule="evenodd" clip-rule="evenodd" fill="#F3AAB9" d="M38 48.7V26c0-.9-.6-1.6-1.4-1.9l-24-8c-.6-.2-1.3-.1-1.8.3s-.8 1-.8 1.6v20.3c-.6-.2-1.3-.3-2-.3-4.4 0-8 3.6-8 8s3.6 8 8 8 8-3.6 8-8c0-2-.8-3.9-2-5.3V28.8l20 6.7v10.8c-.6-.2-1.3-.3-2-.3-4.4 0-8 3.6-8 8s3.6 8 8 8 8-3.6 8-8c0-2-.8-3.9-2-5.3zM14 24.6v-3.8l20 6.7v3.8l-20-6.7z"/><path fill="#FAB90D" d="M574 20c-1.1 0-2-.9-2-2V2c0-1.1.9-2 2-2s2 .9 2 2v16c0 1.1-.9 2-2 2z"/><defs><circle id="a" cx="616" cy="98" r="80"/></defs><clipPath id="b"><use xlink:href="#a" overflow="visible"/></clipPath><g clip-path="url(#b)"><circle fill-rule="evenodd" clip-rule="evenodd" fill="#333" cx="616" cy="98" r="80"/></g><path clip-path="url(#b)" fill="#A4ADBA" d="M591.9 133.9h108v52h-108z"/><g clip-path="url(#b)" fill="#D1DCEF"><path opacity=".5" d="M604.1 101.9c0-4.4 4.5-8 10-8s10 3.6 10 8m0 0c0-8.8 7.2-16 16-16s16 7.2 16 16"/></g><path clip-path="url(#b)" fill="#FBBC03" d="M592 122h108v12H592z"/><g opacity=".5" clip-path="url(#b)" fill="#676767"><path d="M620 134l-4-16-4 16v44h8v-40"/><path d="M616 118l4 16v44h-8v-44l4-16m0-4c-1.8 0-3.4 1.2-3.9 3l-4 16c-.1.3-.1.6-.1 1v44c0 2.2 1.8 4 4 4h8c2.2 0 4-1.8 4-4v-44c0-.3 0-.7-.1-1l-4-16c-.5-1.7-2.1-3-3.9-3z"/></g><g opacity=".5" clip-path="url(#b)" fill="#676767"><path d="M656 134l-4-16-4 16v44h8v-40"/><path d="M652 118l4 16v44h-8v-44l4-16m0-4c-1.8 0-3.4 1.2-3.9 3l-4 16c-.1.3-.1.6-.1 1v44c0 2.2 1.8 4 4 4h8c2.2 0 4-1.8 4-4v-44c0-.3 0-.7-.1-1l-4-16c-.5-1.7-2.1-3-3.9-3z"/></g><path clip-path="url(#b)" fill="#D1DCEF" d="M556 118h36v68h-36zm-4-44h44v44h-44z"/><circle clip-path="url(#b)" fill="#7291A7" cx="574" cy="96" r="18"/><circle clip-path="url(#b)" fill="#FFF" cx="574" cy="96" r="10"/><path clip-path="url(#b)" fill="#333" d="M574 86c-5.5 0-10 4.5-10 10s4.5 10 10 10 10-4.5 10-10c-5.5 0-10-4.5-10-10z"/><path clip-path="url(#b)" fill="#FBBC03" d="M552 74l8-8h28l8 8"/><path clip-path="url(#b)" fill="#D1DCEF" d="M560 50h28v16h-28z"/><path clip-path="url(#b)" fill="#FBBC03" d="M560 50l8-8 4-24h4l4 24 8 8"/><path opacity=".5" d="M632.1 41.9c0-4.4 4.5-8 10-8s10 3.6 10 8m0 0c0-8.8 7.2-16 16-16s16 7.2 16 16" fill="#D1DCEF"/><path fill="#FBBC03" d="M560 50l8-8 4-24h4l4 24 8 8"/><path opacity=".5" d="M492.1 85.9c0-4.4 4.5-8 10-8s10 3.6 10 8m0 0c0-8.8 7.2-16 16-16s16 7.2 16 16" fill="#D1DCEF"/></svg>